<mxfile host="Electron" agent="Mozilla/5.0 (Windows NT 10.0; Win64; x64) AppleWebKit/537.36 (KHTML, like Gecko) draw.io/24.7.8 Chrome/128.0.6613.36 Electron/32.0.1 Safari/537.36" version="24.7.8">
  <diagram name="第 1 页" id="f_4HG91cG6ZL5UUHwWnC">
    <mxGraphModel dx="1687" dy="1005" grid="1" gridSize="10" guides="1" tooltips="1" connect="1" arrows="1" fold="1" page="1" pageScale="1" pageWidth="827" pageHeight="1169" math="0" shadow="0">
      <root>
        <mxCell id="0" />
        <mxCell id="1" parent="0" />
        <mxCell id="tjK81dP1S1JRcEv8si-V-76" value="" style="rounded=0;whiteSpace=wrap;html=1;" vertex="1" parent="1">
          <mxGeometry x="1080" y="330" width="140" height="200" as="geometry" />
        </mxCell>
        <mxCell id="tjK81dP1S1JRcEv8si-V-47" value="" style="rounded=0;whiteSpace=wrap;html=1;" vertex="1" parent="1">
          <mxGeometry x="25" y="750" width="380" height="80" as="geometry" />
        </mxCell>
        <mxCell id="tjK81dP1S1JRcEv8si-V-9" value="" style="rounded=0;whiteSpace=wrap;html=1;" vertex="1" parent="1">
          <mxGeometry x="120" y="60" width="350" height="220" as="geometry" />
        </mxCell>
        <mxCell id="tjK81dP1S1JRcEv8si-V-1" value="Student" style="rounded=0;whiteSpace=wrap;html=1;fontSize=16;" vertex="1" parent="1">
          <mxGeometry x="140" y="160" width="120" height="60" as="geometry" />
        </mxCell>
        <mxCell id="tjK81dP1S1JRcEv8si-V-12" style="edgeStyle=orthogonalEdgeStyle;rounded=0;orthogonalLoop=1;jettySize=auto;html=1;exitX=0;exitY=0.5;exitDx=0;exitDy=0;entryX=0.5;entryY=0;entryDx=0;entryDy=0;" edge="1" parent="1" source="tjK81dP1S1JRcEv8si-V-2" target="tjK81dP1S1JRcEv8si-V-1">
          <mxGeometry relative="1" as="geometry" />
        </mxCell>
        <mxCell id="tjK81dP1S1JRcEv8si-V-2" value="Teacher" style="rounded=0;whiteSpace=wrap;html=1;fontSize=16;" vertex="1" parent="1">
          <mxGeometry x="320" y="80" width="120" height="60" as="geometry" />
        </mxCell>
        <mxCell id="tjK81dP1S1JRcEv8si-V-11" style="edgeStyle=orthogonalEdgeStyle;rounded=0;orthogonalLoop=1;jettySize=auto;html=1;exitX=0;exitY=0.5;exitDx=0;exitDy=0;" edge="1" parent="1" source="tjK81dP1S1JRcEv8si-V-3" target="tjK81dP1S1JRcEv8si-V-1">
          <mxGeometry relative="1" as="geometry" />
        </mxCell>
        <mxCell id="tjK81dP1S1JRcEv8si-V-3" value="Counsellor" style="rounded=0;whiteSpace=wrap;html=1;fontSize=16;" vertex="1" parent="1">
          <mxGeometry x="320" y="160" width="120" height="60" as="geometry" />
        </mxCell>
        <mxCell id="tjK81dP1S1JRcEv8si-V-13" style="edgeStyle=orthogonalEdgeStyle;rounded=0;orthogonalLoop=1;jettySize=auto;html=1;exitX=0;exitY=0.5;exitDx=0;exitDy=0;entryX=1;entryY=0.5;entryDx=0;entryDy=0;" edge="1" parent="1" source="tjK81dP1S1JRcEv8si-V-5" target="tjK81dP1S1JRcEv8si-V-3">
          <mxGeometry relative="1" as="geometry" />
        </mxCell>
        <mxCell id="tjK81dP1S1JRcEv8si-V-14" style="edgeStyle=orthogonalEdgeStyle;rounded=0;orthogonalLoop=1;jettySize=auto;html=1;exitX=0.5;exitY=0;exitDx=0;exitDy=0;entryX=1;entryY=0.5;entryDx=0;entryDy=0;" edge="1" parent="1" source="tjK81dP1S1JRcEv8si-V-5" target="tjK81dP1S1JRcEv8si-V-2">
          <mxGeometry relative="1" as="geometry" />
        </mxCell>
        <mxCell id="tjK81dP1S1JRcEv8si-V-15" style="edgeStyle=orthogonalEdgeStyle;rounded=0;orthogonalLoop=1;jettySize=auto;html=1;exitX=0.5;exitY=1;exitDx=0;exitDy=0;entryX=0.5;entryY=1;entryDx=0;entryDy=0;" edge="1" parent="1" source="tjK81dP1S1JRcEv8si-V-5" target="tjK81dP1S1JRcEv8si-V-1">
          <mxGeometry relative="1" as="geometry">
            <Array as="points">
              <mxPoint x="620" y="250" />
              <mxPoint x="200" y="250" />
            </Array>
          </mxGeometry>
        </mxCell>
        <mxCell id="tjK81dP1S1JRcEv8si-V-5" value="Admin" style="rounded=0;whiteSpace=wrap;html=1;fontSize=16;" vertex="1" parent="1">
          <mxGeometry x="560" y="160" width="120" height="60" as="geometry" />
        </mxCell>
        <mxCell id="tjK81dP1S1JRcEv8si-V-10" style="edgeStyle=orthogonalEdgeStyle;rounded=0;orthogonalLoop=1;jettySize=auto;html=1;exitX=0.5;exitY=0;exitDx=0;exitDy=0;entryX=0.5;entryY=1;entryDx=0;entryDy=0;" edge="1" parent="1" source="tjK81dP1S1JRcEv8si-V-8" target="tjK81dP1S1JRcEv8si-V-9">
          <mxGeometry relative="1" as="geometry" />
        </mxCell>
        <mxCell id="tjK81dP1S1JRcEv8si-V-22" style="rounded=0;orthogonalLoop=1;jettySize=auto;html=1;exitX=0.5;exitY=1;exitDx=0;exitDy=0;entryX=0.5;entryY=0;entryDx=0;entryDy=0;" edge="1" parent="1" source="tjK81dP1S1JRcEv8si-V-8" target="tjK81dP1S1JRcEv8si-V-16">
          <mxGeometry relative="1" as="geometry" />
        </mxCell>
        <mxCell id="tjK81dP1S1JRcEv8si-V-23" value="lead" style="edgeLabel;html=1;align=center;verticalAlign=middle;resizable=0;points=[];" vertex="1" connectable="0" parent="tjK81dP1S1JRcEv8si-V-22">
          <mxGeometry x="0.1989" y="-1" relative="1" as="geometry">
            <mxPoint y="-11" as="offset" />
          </mxGeometry>
        </mxCell>
        <mxCell id="tjK81dP1S1JRcEv8si-V-24" value="0.." style="edgeLabel;html=1;align=center;verticalAlign=middle;resizable=0;points=[];" vertex="1" connectable="0" parent="tjK81dP1S1JRcEv8si-V-22">
          <mxGeometry x="0.5803" relative="1" as="geometry">
            <mxPoint x="-8" y="-5" as="offset" />
          </mxGeometry>
        </mxCell>
        <mxCell id="tjK81dP1S1JRcEv8si-V-26" style="rounded=0;orthogonalLoop=1;jettySize=auto;html=1;exitX=0.5;exitY=1;exitDx=0;exitDy=0;entryX=0.5;entryY=0;entryDx=0;entryDy=0;" edge="1" parent="1" source="tjK81dP1S1JRcEv8si-V-8" target="tjK81dP1S1JRcEv8si-V-25">
          <mxGeometry relative="1" as="geometry" />
        </mxCell>
        <mxCell id="tjK81dP1S1JRcEv8si-V-27" value="belong to" style="edgeLabel;html=1;align=center;verticalAlign=middle;resizable=0;points=[];" vertex="1" connectable="0" parent="tjK81dP1S1JRcEv8si-V-26">
          <mxGeometry x="-0.1539" y="1" relative="1" as="geometry">
            <mxPoint as="offset" />
          </mxGeometry>
        </mxCell>
        <mxCell id="tjK81dP1S1JRcEv8si-V-28" value="1.." style="edgeLabel;html=1;align=center;verticalAlign=middle;resizable=0;points=[];" vertex="1" connectable="0" parent="tjK81dP1S1JRcEv8si-V-26">
          <mxGeometry x="0.5045" y="1" relative="1" as="geometry">
            <mxPoint x="18" as="offset" />
          </mxGeometry>
        </mxCell>
        <mxCell id="tjK81dP1S1JRcEv8si-V-34" style="edgeStyle=orthogonalEdgeStyle;rounded=0;orthogonalLoop=1;jettySize=auto;html=1;exitX=0;exitY=0.5;exitDx=0;exitDy=0;entryX=1;entryY=0.5;entryDx=0;entryDy=0;" edge="1" parent="1" source="tjK81dP1S1JRcEv8si-V-8" target="tjK81dP1S1JRcEv8si-V-35">
          <mxGeometry relative="1" as="geometry">
            <mxPoint x="190" y="350.3103448275863" as="targetPoint" />
          </mxGeometry>
        </mxCell>
        <mxCell id="tjK81dP1S1JRcEv8si-V-38" style="rounded=0;orthogonalLoop=1;jettySize=auto;html=1;exitX=1;exitY=0.5;exitDx=0;exitDy=0;entryX=0;entryY=0.5;entryDx=0;entryDy=0;" edge="1" parent="1" source="tjK81dP1S1JRcEv8si-V-8" target="tjK81dP1S1JRcEv8si-V-37">
          <mxGeometry relative="1" as="geometry" />
        </mxCell>
        <mxCell id="tjK81dP1S1JRcEv8si-V-68" style="rounded=0;orthogonalLoop=1;jettySize=auto;html=1;exitX=1;exitY=0.5;exitDx=0;exitDy=0;entryX=0;entryY=0.5;entryDx=0;entryDy=0;" edge="1" parent="1" source="tjK81dP1S1JRcEv8si-V-8" target="tjK81dP1S1JRcEv8si-V-67">
          <mxGeometry relative="1" as="geometry" />
        </mxCell>
        <mxCell id="tjK81dP1S1JRcEv8si-V-79" style="edgeStyle=orthogonalEdgeStyle;rounded=0;orthogonalLoop=1;jettySize=auto;html=1;exitX=0.5;exitY=1;exitDx=0;exitDy=0;entryX=0.5;entryY=0;entryDx=0;entryDy=0;" edge="1" parent="1" source="tjK81dP1S1JRcEv8si-V-8" target="tjK81dP1S1JRcEv8si-V-78">
          <mxGeometry relative="1" as="geometry" />
        </mxCell>
        <mxCell id="tjK81dP1S1JRcEv8si-V-8" value="User" style="rounded=0;whiteSpace=wrap;html=1;fontSize=16;fillColor=#ffe6cc;strokeColor=#d79b00;" vertex="1" parent="1">
          <mxGeometry x="235" y="320" width="120" height="60" as="geometry" />
        </mxCell>
        <mxCell id="tjK81dP1S1JRcEv8si-V-16" value="Class" style="rounded=0;whiteSpace=wrap;html=1;fontSize=16;" vertex="1" parent="1">
          <mxGeometry x="90" y="450" width="120" height="60" as="geometry" />
        </mxCell>
        <mxCell id="tjK81dP1S1JRcEv8si-V-18" value="[Student]" style="rounded=0;whiteSpace=wrap;html=1;fontSize=16;" vertex="1" parent="1">
          <mxGeometry x="770" y="270" width="120" height="60" as="geometry" />
        </mxCell>
        <mxCell id="tjK81dP1S1JRcEv8si-V-25" value="Class" style="rounded=0;whiteSpace=wrap;html=1;fontSize=16;" vertex="1" parent="1">
          <mxGeometry x="380" y="450" width="120" height="60" as="geometry" />
        </mxCell>
        <mxCell id="tjK81dP1S1JRcEv8si-V-31" style="edgeStyle=orthogonalEdgeStyle;rounded=0;orthogonalLoop=1;jettySize=auto;html=1;exitX=0.5;exitY=1;exitDx=0;exitDy=0;entryX=0.5;entryY=0;entryDx=0;entryDy=0;" edge="1" parent="1" source="tjK81dP1S1JRcEv8si-V-30" target="tjK81dP1S1JRcEv8si-V-18">
          <mxGeometry relative="1" as="geometry" />
        </mxCell>
        <mxCell id="tjK81dP1S1JRcEv8si-V-33" style="edgeStyle=orthogonalEdgeStyle;rounded=0;orthogonalLoop=1;jettySize=auto;html=1;exitX=0.5;exitY=0;exitDx=0;exitDy=0;entryX=0.5;entryY=1;entryDx=0;entryDy=0;" edge="1" parent="1" source="tjK81dP1S1JRcEv8si-V-30" target="tjK81dP1S1JRcEv8si-V-32">
          <mxGeometry relative="1" as="geometry" />
        </mxCell>
        <mxCell id="tjK81dP1S1JRcEv8si-V-40" style="edgeStyle=orthogonalEdgeStyle;rounded=0;orthogonalLoop=1;jettySize=auto;html=1;exitX=1;exitY=0.5;exitDx=0;exitDy=0;entryX=0;entryY=0.5;entryDx=0;entryDy=0;" edge="1" parent="1" source="tjK81dP1S1JRcEv8si-V-30" target="tjK81dP1S1JRcEv8si-V-39">
          <mxGeometry relative="1" as="geometry" />
        </mxCell>
        <mxCell id="tjK81dP1S1JRcEv8si-V-30" value="Class" style="rounded=0;whiteSpace=wrap;html=1;fontSize=16;fillColor=#ffe6cc;strokeColor=#d79b00;" vertex="1" parent="1">
          <mxGeometry x="770" y="160" width="120" height="60" as="geometry" />
        </mxCell>
        <mxCell id="tjK81dP1S1JRcEv8si-V-32" value="[{ Teacher,&lt;div&gt;Counsellor }]&lt;/div&gt;" style="rounded=0;whiteSpace=wrap;html=1;fontSize=16;" vertex="1" parent="1">
          <mxGeometry x="770" y="50" width="120" height="60" as="geometry" />
        </mxCell>
        <mxCell id="tjK81dP1S1JRcEv8si-V-35" value="&amp;lt;self&amp;gt;.Class" style="rounded=0;whiteSpace=wrap;html=1;fontSize=16;" vertex="1" parent="1">
          <mxGeometry x="60" y="320" width="120" height="60" as="geometry" />
        </mxCell>
        <mxCell id="tjK81dP1S1JRcEv8si-V-41" style="rounded=0;orthogonalLoop=1;jettySize=auto;html=1;exitX=0.5;exitY=1;exitDx=0;exitDy=0;entryX=0.5;entryY=0;entryDx=0;entryDy=0;" edge="1" parent="1" source="tjK81dP1S1JRcEv8si-V-36" target="tjK81dP1S1JRcEv8si-V-47">
          <mxGeometry relative="1" as="geometry">
            <mxPoint x="285" y="715" as="targetPoint" />
          </mxGeometry>
        </mxCell>
        <mxCell id="tjK81dP1S1JRcEv8si-V-49" style="edgeStyle=orthogonalEdgeStyle;rounded=0;orthogonalLoop=1;jettySize=auto;html=1;exitX=0;exitY=0.5;exitDx=0;exitDy=0;entryX=1;entryY=0.5;entryDx=0;entryDy=0;" edge="1" parent="1" source="tjK81dP1S1JRcEv8si-V-36" target="tjK81dP1S1JRcEv8si-V-48">
          <mxGeometry relative="1" as="geometry" />
        </mxCell>
        <mxCell id="tjK81dP1S1JRcEv8si-V-51" style="edgeStyle=orthogonalEdgeStyle;rounded=0;orthogonalLoop=1;jettySize=auto;html=1;exitX=1;exitY=0.5;exitDx=0;exitDy=0;" edge="1" parent="1" source="tjK81dP1S1JRcEv8si-V-36" target="tjK81dP1S1JRcEv8si-V-50">
          <mxGeometry relative="1" as="geometry" />
        </mxCell>
        <mxCell id="tjK81dP1S1JRcEv8si-V-66" style="rounded=0;orthogonalLoop=1;jettySize=auto;html=1;exitX=1;exitY=1;exitDx=0;exitDy=0;" edge="1" parent="1" source="tjK81dP1S1JRcEv8si-V-36" target="tjK81dP1S1JRcEv8si-V-65">
          <mxGeometry relative="1" as="geometry" />
        </mxCell>
        <mxCell id="tjK81dP1S1JRcEv8si-V-36" value="Task" style="rounded=0;whiteSpace=wrap;html=1;fontSize=16;fillColor=#ffe6cc;strokeColor=#d79b00;" vertex="1" parent="1">
          <mxGeometry x="225" y="640" width="120" height="60" as="geometry" />
        </mxCell>
        <mxCell id="tjK81dP1S1JRcEv8si-V-70" style="edgeStyle=orthogonalEdgeStyle;rounded=0;orthogonalLoop=1;jettySize=auto;html=1;exitX=1;exitY=0.5;exitDx=0;exitDy=0;entryX=0;entryY=0.5;entryDx=0;entryDy=0;" edge="1" parent="1" source="tjK81dP1S1JRcEv8si-V-37" target="tjK81dP1S1JRcEv8si-V-54">
          <mxGeometry relative="1" as="geometry" />
        </mxCell>
        <mxCell id="tjK81dP1S1JRcEv8si-V-85" style="rounded=0;orthogonalLoop=1;jettySize=auto;html=1;exitX=1;exitY=0.75;exitDx=0;exitDy=0;entryX=0.25;entryY=0;entryDx=0;entryDy=0;" edge="1" parent="1" source="tjK81dP1S1JRcEv8si-V-37" target="tjK81dP1S1JRcEv8si-V-80">
          <mxGeometry relative="1" as="geometry" />
        </mxCell>
        <mxCell id="tjK81dP1S1JRcEv8si-V-37" value="[Task]" style="rounded=0;whiteSpace=wrap;html=1;fontSize=16;" vertex="1" parent="1">
          <mxGeometry x="390" y="290" width="120" height="60" as="geometry" />
        </mxCell>
        <mxCell id="tjK81dP1S1JRcEv8si-V-39" value="[Task]" style="rounded=0;whiteSpace=wrap;html=1;fontSize=16;" vertex="1" parent="1">
          <mxGeometry x="940" y="160" width="120" height="60" as="geometry" />
        </mxCell>
        <mxCell id="tjK81dP1S1JRcEv8si-V-43" value="Title" style="rounded=0;whiteSpace=wrap;html=1;fontSize=16;" vertex="1" parent="1">
          <mxGeometry x="35" y="760" width="120" height="60" as="geometry" />
        </mxCell>
        <mxCell id="tjK81dP1S1JRcEv8si-V-44" value="DDL" style="rounded=0;whiteSpace=wrap;html=1;fontSize=16;" vertex="1" parent="1">
          <mxGeometry x="155" y="760" width="120" height="60" as="geometry" />
        </mxCell>
        <mxCell id="tjK81dP1S1JRcEv8si-V-45" value="Content" style="rounded=0;whiteSpace=wrap;html=1;fontSize=16;" vertex="1" parent="1">
          <mxGeometry x="275" y="760" width="120" height="60" as="geometry" />
        </mxCell>
        <mxCell id="tjK81dP1S1JRcEv8si-V-48" value="Class" style="rounded=0;whiteSpace=wrap;html=1;fontSize=16;" vertex="1" parent="1">
          <mxGeometry x="30" y="640" width="120" height="60" as="geometry" />
        </mxCell>
        <mxCell id="tjK81dP1S1JRcEv8si-V-50" value="{ Teacher,&lt;div&gt;Counsellor }&lt;/div&gt;" style="rounded=0;whiteSpace=wrap;html=1;fontSize=16;" vertex="1" parent="1">
          <mxGeometry x="405" y="640" width="120" height="60" as="geometry" />
        </mxCell>
        <mxCell id="tjK81dP1S1JRcEv8si-V-54" value="Task Completion" style="rounded=0;whiteSpace=wrap;html=1;fontSize=16;" vertex="1" parent="1">
          <mxGeometry x="550" y="290" width="120" height="60" as="geometry" />
        </mxCell>
        <mxCell id="tjK81dP1S1JRcEv8si-V-56" value="Tag" style="rounded=0;whiteSpace=wrap;html=1;fontSize=16;fillColor=#ffe6cc;strokeColor=#d79b00;" vertex="1" parent="1">
          <mxGeometry x="550" y="530" width="120" height="60" as="geometry" />
        </mxCell>
        <mxCell id="tjK81dP1S1JRcEv8si-V-63" style="edgeStyle=orthogonalEdgeStyle;rounded=0;orthogonalLoop=1;jettySize=auto;html=1;exitX=0.5;exitY=1;exitDx=0;exitDy=0;entryX=0.5;entryY=0;entryDx=0;entryDy=0;" edge="1" parent="1" source="tjK81dP1S1JRcEv8si-V-57" target="tjK81dP1S1JRcEv8si-V-59">
          <mxGeometry relative="1" as="geometry" />
        </mxCell>
        <mxCell id="tjK81dP1S1JRcEv8si-V-57" value="Activity" style="rounded=0;whiteSpace=wrap;html=1;fontSize=16;fillColor=#ffe6cc;strokeColor=#d79b00;" vertex="1" parent="1">
          <mxGeometry x="810" y="560" width="120" height="60" as="geometry" />
        </mxCell>
        <mxCell id="tjK81dP1S1JRcEv8si-V-59" value="" style="rounded=0;whiteSpace=wrap;html=1;" vertex="1" parent="1">
          <mxGeometry x="680" y="670" width="380" height="80" as="geometry" />
        </mxCell>
        <mxCell id="tjK81dP1S1JRcEv8si-V-60" value="Title" style="rounded=0;whiteSpace=wrap;html=1;fontSize=16;" vertex="1" parent="1">
          <mxGeometry x="690" y="680" width="120" height="60" as="geometry" />
        </mxCell>
        <mxCell id="tjK81dP1S1JRcEv8si-V-61" value="DDL" style="rounded=0;whiteSpace=wrap;html=1;fontSize=16;" vertex="1" parent="1">
          <mxGeometry x="810" y="680" width="120" height="60" as="geometry" />
        </mxCell>
        <mxCell id="tjK81dP1S1JRcEv8si-V-62" value="Content" style="rounded=0;whiteSpace=wrap;html=1;fontSize=16;" vertex="1" parent="1">
          <mxGeometry x="930" y="680" width="120" height="60" as="geometry" />
        </mxCell>
        <mxCell id="tjK81dP1S1JRcEv8si-V-65" value="Period?" style="rounded=0;whiteSpace=wrap;html=1;fontSize=16;" vertex="1" parent="1">
          <mxGeometry x="440" y="760" width="120" height="60" as="geometry" />
        </mxCell>
        <mxCell id="tjK81dP1S1JRcEv8si-V-86" style="rounded=0;orthogonalLoop=1;jettySize=auto;html=1;exitX=1;exitY=0.5;exitDx=0;exitDy=0;" edge="1" parent="1" source="tjK81dP1S1JRcEv8si-V-67" target="tjK81dP1S1JRcEv8si-V-80">
          <mxGeometry relative="1" as="geometry" />
        </mxCell>
        <mxCell id="tjK81dP1S1JRcEv8si-V-67" value="[Activity]" style="rounded=0;whiteSpace=wrap;html=1;fontSize=16;" vertex="1" parent="1">
          <mxGeometry x="390" y="350" width="120" height="60" as="geometry" />
        </mxCell>
        <mxCell id="tjK81dP1S1JRcEv8si-V-77" style="edgeStyle=orthogonalEdgeStyle;rounded=0;orthogonalLoop=1;jettySize=auto;html=1;exitX=1;exitY=0.5;exitDx=0;exitDy=0;entryX=0;entryY=0.5;entryDx=0;entryDy=0;" edge="1" parent="1" source="tjK81dP1S1JRcEv8si-V-71" target="tjK81dP1S1JRcEv8si-V-76">
          <mxGeometry relative="1" as="geometry" />
        </mxCell>
        <mxCell id="tjK81dP1S1JRcEv8si-V-71" value="Message" style="rounded=0;whiteSpace=wrap;html=1;fontSize=16;fillColor=#ffe6cc;strokeColor=#d79b00;" vertex="1" parent="1">
          <mxGeometry x="930" y="400" width="120" height="60" as="geometry" />
        </mxCell>
        <mxCell id="tjK81dP1S1JRcEv8si-V-72" value="Title" style="rounded=0;whiteSpace=wrap;html=1;fontSize=16;" vertex="1" parent="1">
          <mxGeometry x="1090" y="340" width="120" height="60" as="geometry" />
        </mxCell>
        <mxCell id="tjK81dP1S1JRcEv8si-V-73" value="Content" style="rounded=0;whiteSpace=wrap;html=1;fontSize=16;" vertex="1" parent="1">
          <mxGeometry x="1090" y="400" width="120" height="60" as="geometry" />
        </mxCell>
        <mxCell id="tjK81dP1S1JRcEv8si-V-74" value="From" style="rounded=0;whiteSpace=wrap;html=1;fontSize=16;" vertex="1" parent="1">
          <mxGeometry x="1090" y="460" width="120" height="60" as="geometry" />
        </mxCell>
        <mxCell id="tjK81dP1S1JRcEv8si-V-78" value="[Unread] Message" style="rounded=0;whiteSpace=wrap;html=1;fontSize=16;" vertex="1" parent="1">
          <mxGeometry x="235" y="480" width="120" height="60" as="geometry" />
        </mxCell>
        <mxCell id="tjK81dP1S1JRcEv8si-V-80" value="[Tag]" style="rounded=0;whiteSpace=wrap;html=1;fontSize=16;" vertex="1" parent="1">
          <mxGeometry x="550" y="400" width="120" height="60" as="geometry" />
        </mxCell>
      </root>
    </mxGraphModel>
  </diagram>
</mxfile>
